<?xml version="1.0" encoding="UTF-8"?>
<svg xmlns="http://www.w3.org/2000/svg" width="595.28" height="595.28" viewBox="0 0 595.28 595.28">
  <defs>
    <style>
      .cls-1 {
        fill: #00aeef;
      }

      .cls-1, .cls-2, .cls-3, .cls-4, .cls-5 {
        stroke-width: 0px;
      }

      .cls-6 {
        stroke: #2aace2;
        stroke-width: 4px;
      }

      .cls-6, .cls-7, .cls-8, .cls-9, .cls-10 {
        stroke-miterlimit: 10;
      }

      .cls-6, .cls-8 {
        fill: none;
      }

      .cls-2 {
        fill: #2a292b;
      }

      .cls-3 {
        fill: #fff;
      }

      .cls-7 {
        stroke: #4f4f51;
        stroke-width: 2px;
      }

      .cls-7, .cls-4, .cls-10 {
        fill: #231f20;
      }

      .cls-5 {
        fill: #f1f2f2;
      }

      .cls-8 {
        stroke: #fff;
        stroke-width: 6px;
      }

      .cls-9 {
        fill: #4d4d4f;
        stroke: #4e4e4f;
        stroke-width: 5px;
      }

      .cls-10 {
        stroke: #5a5b5d;
        stroke-width: 3px;
      }
    </style>
  </defs>
  <g id="bg">
    <rect class="cls-4" width="595.28" height="595.28"/>
  </g>
  <g id="bus">
    <rect class="cls-6" x="562.69" y="29.63" width="467.14" height="51.85" rx="12.53" ry="12.53"/>
    <g id="bus_carcass" data-name="bus carcass">
      <path class="cls-4" d="M1058.58,79.42c.63,75.46.12,327.09.19,408.61-.44,6.9.89,15.34-6.48,16.8-147.72,2.04-481.61-.15-569.07.66-12.74.07-19.65-1-33.35-5.26-8.27-2.49-19.46-6.16-32.72-10.52-17.16-5.76-34.83-11.31-51.2-17.13-8.36-3.01-20.07-7.53-24.09-11.66-5.2-4.61-6.24-10.13-6.58-17.05-.63-53.47.04-171.44-.22-267.21.45-44.81-.8-70.7.41-97.84.45-4.88,1.43-7.9,3.81-9.72,1.76-1.32,4.27-2.04,7.82-2.43,85.45-1.41,256.78-.15,341.07-.54h.12c106.82.16,248.63-.33,355.12.22,10.76.31,14.8,2.45,15.18,13.07Z"/>
      <path class="cls-6" d="M688.17,66.13c-84.28.39-255.62-.87-341.07.54-3.55.39-6.06,1.11-7.82,2.43-2.39,1.82-3.36,4.85-3.81,9.72-1.21,27.13.04,53.03-.41,97.84.26,95.77-.41,213.74.22,267.21.33,6.91,1.38,12.43,6.58,17.05,4.02,4.13,15.74,8.65,24.09,11.66,16.36,5.82,34.03,11.37,51.2,17.13,13.26,4.37,24.46,8.04,32.72,10.52,13.7,4.25,20.61,5.33,33.35,5.26,87.46-.8,421.35,1.38,569.07-.66,7.37-1.46,6.04-9.9,6.48-16.8-.07-81.52.44-333.15-.19-408.61-.38-10.63-4.43-12.77-15.18-13.07-106.48-.55-248.3-.06-355.12-.22h-.12Z"/>
    </g>
    <g id="white_stripe" data-name="white stripe">
      <rect class="cls-1" x="336.72" y="356.12" width="432.33" height="35.36"/>
    </g>
    <g id="wheel">
      <circle class="cls-10" cx="581.94" cy="480.67" r="80.32"/>
      <circle class="cls-7" cx="581.94" cy="480.67" r="51.46" transform="translate(-169.44 552.28) rotate(-45)"/>
      <line class="cls-9" x1="581.94" y1="429.21" x2="581.94" y2="532.12"/>
      <line class="cls-9" x1="537.38" y1="454.94" x2="626.5" y2="506.4"/>
      <line class="cls-9" x1="626.5" y1="454.94" x2="537.38" y2="506.4"/>
      <circle class="cls-4" cx="581.94" cy="480.67" r="5.09"/>
    </g>
    <g id="black_window_band" data-name="black window band">
      <rect class="cls-2" x="348.2" y="120.01" width="139.27" height="209.05" rx="11.63" ry="11.63"/>
      <path class="cls-2" d="M595.28,329.05h138.76M595.28,120.01h-74.32c-9.5,0-17.21,7.71-17.21,17.21v174.63c0,9.5,7.71,17.21,17.21,17.21h74.32"/>
    </g>
  </g>
  <g id="Layer_1" data-name="Layer 1">
    <g>
      <circle class="cls-5" cx="61.1" cy="230.99" r="32.98"/>
      <polyline class="cls-5" points="42.54 328.25 43.77 326.5 43.36 325.89"/>
      <rect id="hand1" class="cls-5" x="50.13" y="405.48" width="34.55" height="128" rx="17.28" ry="17.28" transform="translate(11.44 -1.5) rotate(1.39)"/>
      <polyline class="cls-5" points="25.63 258.99 -6.19 292.14 -85.86 454.48 -69.82 462.67 -59.72 462.67 -6.35 392.9 42.54 328.25 59.65 279.58"/>
      <polyline class="cls-5" points="76.63 375.68 43.36 325.89 59.65 279.58 91.98 346.19"/>
      <polyline class="cls-5" points="-6.19 292.14 -49.38 285.1 -51.84 257.5 25.63 258.99"/>
      <polyline class="cls-5" points="49.12 510.9 48.67 430.68 -6.79 393.46 19.93 358.14 87.36 415.6 83.93 500.78"/>
      <rect id="hand1-2" data-name="hand1" class="cls-5" x="99.61" y="307.11" width="28.17" height="89.32" rx="11.59" ry="11.59" transform="translate(386.61 102.4) rotate(65.49)"/>
    </g>
  </g>
  <g id="wind">
    <g>
      <path class="cls-8" d="M303.9,279.05c3.2-.03-58.14.19-75.87.31-3.69.1-7.64.27-11-1.71-3.87-2.07-7.27-6.28-8.36-10.17-1.59-5.66.98-12,6.04-15.85,3.64-2.57,9.53-3.24,13.77-1.57,3.49,1.23,6.71,3.9,8.32,7.09,1.26,2.49,1.65,8.35,1.54,7.12"/>
      <path class="cls-8" d="M294.9,295.93c3.2.03-78.35.17-96.07.05-3.69-.1-7.64-.27-11,1.71-3.87,2.07-7.27,6.28-8.36,10.17-1.59,5.66.98,12,6.04,15.85,3.64,2.57,9.53,3.24,13.77,1.57,3.49-1.23,6.71-3.9,8.32-7.09,1.26-2.49,1.65-8.35,1.54-7.12"/>
      <path class="cls-8" d="M312.22,311.06c3.2.03-52.91.17-70.63.05-3.69-.1-7.64-.27-11,1.71-3.87,2.07-7.27,6.28-8.36,10.17-1.59,5.66.98,12,6.04,15.85,3.64,2.57,9.53,3.24,13.77,1.57,3.49-1.23,6.71-3.9,8.32-7.09,1.26-2.49,1.65-8.35,1.54-7.12"/>
    </g>
    <path class="cls-3" d="M235.54,263.28v.42c1.54-.42,3.09-.84,4.65-1.26-.04-.07-.08-.15-.12-.23l.25.6c-.06-.15-.11-.31-.13-.48l.09.66c-.02-.16-.02-.33,0-.49l-.09.66s0-.04,0-.06c.1-.33.12-.66.04-1-.02-.33-.11-.64-.3-.93-.16-.29-.37-.53-.64-.7-.24-.22-.52-.37-.85-.45l-.66-.09c-.45,0-.87.12-1.26.34l-.51.39c-.31.31-.52.68-.64,1.1-.05.32-.12.66-.11.99s.06.66.12.99c.02.11.05.22.09.33.11.3.23.61.39.89l.39.51c.23.24.49.42.8.52.19.11.41.17.63.17.33.07.66.06,1-.04l.6-.25.51-.39c.24-.23.42-.49.52-.8.16-.3.23-.62.22-.96v-.42c.03-.34-.05-.67-.2-.96-.1-.31-.27-.58-.52-.8-.23-.24-.49-.42-.8-.52-.3-.16-.62-.23-.96-.22l-.66.09c-.42.12-.79.33-1.1.64l-.39.51c-.23.39-.34.81-.34,1.26h0Z"/>
    <path class="cls-3" d="M235.75,263.48l-.07.85c-.01.34.06.67.22.96.1.31.27.58.52.8.23.24.49.42.8.52.3.16.62.23.96.22l.66-.09c.42-.12.79-.33,1.1-.64l.39-.51c.23-.39.34-.81.34-1.26l.07-.85c.01-.34-.06-.67-.22-.96-.1-.31-.27-.58-.52-.8-.23-.24-.49-.42-.8-.52-.3-.16-.62-.23-.96-.22l-.66.09c-.42.12-.79.33-1.1.64l-.39.51c-.23.39-.34.81-.34,1.26h0Z"/>
    <path class="cls-3" d="M236.54,262.88l-.17.16,4.18,2.43c.08-.49.16-.99.16-1.48s-.07-1.03-.16-1.53c-.1-.6-.38-1.15-.47-1.74l.09.66c-.12-1-.07-1.99-.65-2.88-.35-.54-.86-.97-1.49-1.15-.6-.16-1.4-.09-1.93.25s-1,.86-1.15,1.49-.11,1.36.25,1.93c.04.07.08.13.11.2l-.25-.6c.06.15.09.29.12.45l-.09-.66c.08.67.06,1.34.24,2,.14.51.34.98.41,1.51l-.09-.66c.06.46.06.91,0,1.36l.09-.66c0,.06-.02.12-.03.18l-.09.66c-.01.34.06.67.22.96.2.48.55.95,1.02,1.2,1,.53,2.2.4,3.03-.39l.17-.16c.46-.43.73-1.14.73-1.77s-.27-1.35-.73-1.77-1.1-.76-1.77-.73-1.27.26-1.77.73h0Z"/>
    <path class="cls-3" d="M206.6,310.86c0,.57-.03,1.14-.1,1.7l.09-.66c-.05.38-.12.76-.21,1.14-.15.65-.09,1.35.25,1.93.16.29.37.53.64.7.24.22.52.37.85.45l.66.09c.45,0,.87-.12,1.26-.34.54-.35,1-.86,1.15-1.49.16-.67.25-1.36.33-2.05.05-.48.08-.97.07-1.45,0-.65-.27-1.31-.73-1.77-.23-.24-.49-.42-.8-.52-.3-.16-.62-.23-.96-.22-.65.03-1.32.24-1.77.73s-.74,1.09-.73,1.77h0Z"/>
    <path class="cls-3" d="M210.63,315.14s.04-.04.06-.06l.39-.51s.02-.02.02-.03c.14-.21.22-.46.3-.71.1-.33.12-.66.04-1-.02-.33-.11-.64-.3-.93l-.39-.51c-.23-.24-.49-.42-.8-.52-.19-.11-.41-.17-.63-.17-.33-.07-.66-.06-1,.04l-.6.25c-.38.22-.67.52-.9.9-.17.4-.36.79-.44,1.22-.06.32-.1.64-.13.97,0,.12,0,.23,0,.35-.01.34.06.67.22.96.1.31.27.58.52.8.23.24.49.42.8.52.3.16.62.23.96.22l.66-.09c.42-.12.79-.33,1.1-.64l.39-.51c.23-.39.34-.81.34-1.26-.01-.18,0-.36.02-.54l-.09.66c.03-.24.1-.47.19-.7l-.25.6s.01-.03.02-.04l-4.57-1.93s0,.03-.01.04l.25-.6s-.04.07-.06.1l.39-.51s-.04.04-.06.06c-.24.23-.42.49-.52.8-.16.3-.23.62-.22.96-.01.34.06.67.22.96.1.31.27.58.52.8l.51.39c.39.23.81.34,1.26.34l.66-.09c.42-.12.79-.33,1.1-.64h0Z"/>
    <path class="cls-3" d="M206.74,312.93c-.16.32-.29.64-.42.97-.05.13-.1.27-.13.4-.14.48-.19.99-.24,1.48-.01.34.06.67.22.96.1.31.27.58.52.8.23.24.49.42.8.52.3.16.62.23.96.22l.66-.09c.42-.12.79-.33,1.1-.64l.39-.51c.23-.39.34-.81.34-1.26,0-.07.01-.14.02-.2l-.09.66c.06-.4.16-.78.32-1.15l-.25.6c.03-.08.07-.16.11-.24.18-.29.28-.6.3-.93.07-.33.06-.66-.04-1-.08-.33-.23-.61-.45-.85-.18-.27-.41-.49-.7-.64l-.6-.25c-.44-.12-.89-.12-1.33,0l-.6.25c-.38.22-.67.52-.9.9h0Z"/>
    <path class="cls-3" d="M208.7,314.92c3.22,0,3.22-5,0-5s-3.22,5,0,5h0Z"/>
    <path class="cls-3" d="M208.7,314.47c3.22,0,3.22-5,0-5s-3.22,5,0,5h0Z"/>
    <path class="cls-3" d="M211.2,311.54v-.13c.01-.34-.06-.67-.22-.96-.1-.31-.27-.58-.52-.8-.23-.24-.49-.42-.8-.52-.3-.16-.62-.23-.96-.22l-.66.09c-.42.12-.79.33-1.1.64l-.39.51c-.23.39-.34.81-.34,1.26v.13c-.01.34.06.67.22.96.1.31.27.58.52.8.23.24.49.42.8.52.3.16.62.23.96.22l.66-.09c.42-.12.79-.33,1.1-.64l.39-.51c.23-.39.34-.81.34-1.26h0Z"/>
    <path class="cls-3" d="M208.7,313.55c3.22,0,3.22-5,0-5s-3.22,5,0,5h0Z"/>
    <path class="cls-3" d="M208.89,313.42c3.22,0,3.22-5,0-5s-3.22,5,0,5h0Z"/>
    <path class="cls-3" d="M209.48,313.42c3.22,0,3.22-5,0-5s-3.22,5,0,5h0Z"/>
    <path class="cls-3" d="M209.41,313.65c3.22,0,3.22-5,0-5s-3.22,5,0,5h0Z"/>
    <path class="cls-3" d="M209.38,314.37c3.22,0,3.22-5,0-5s-3.22,5,0,5h0Z"/>
    <path class="cls-3" d="M251.98,328.09c3.22,0,3.22-5,0-5s-3.22,5,0,5h0Z"/>
    <path class="cls-3" d="M251.73,328.29c3.22,0,3.22-5,0-5s-3.22,5,0,5h0Z"/>
    <path class="cls-3" d="M249.23,325.32l-.03.15c-.1.33-.12.66-.04,1,.02.33.11.64.3.93.16.29.37.53.64.7.24.22.52.37.85.45l.66.09c.45,0,.87-.12,1.26-.34l.51-.39c.31-.31.52-.68.64-1.1l.03-.15c.1-.33.12-.66.04-1-.02-.33-.11-.64-.3-.93-.16-.29-.37-.53-.64-.7-.24-.22-.52-.37-.85-.45l-.66-.09c-.45,0-.87.12-1.26.34l-.51.39c-.31.31-.52.68-.64,1.1h0Z"/>
    <path class="cls-3" d="M249.05,327.33s0,.02,0,.03l-.09-.66s0,.03,0,.04l.09-.66s0,.03-.01.05l.25-.6s-.01.03-.02.04l.39-.51s-.01.01-.02.02c-.24.23-.42.49-.52.8-.16.3-.23.62-.22.96-.01.34.06.67.22.96.1.31.27.58.52.8l.51.39c.39.23.81.34,1.26.34l.66-.09c.42-.12.79-.33,1.1-.64.08-.07.21-.27.21-.27.02-.02.14-.17.2-.26,0,0,0,0,0-.01,0,0,0,0,0-.01,0,0,0,0,0,0h0c.08-.2.17-.4.25-.6,0,0,0-.02,0-.02.03-.11.05-.37.05-.35,0-.02.04-.23.05-.34,0,0,0,0,0-.01,0,0,0,0,0-.01,0,0,0,0,0,0h0c-.03-.22-.06-.45-.09-.67,0,0,0-.02,0-.03-.08-.33-.23-.61-.45-.85-.18-.27-.41-.49-.7-.64-.29-.18-.6-.28-.93-.3-.33-.07-.66-.06-1,.04l-.6.25c-.38.22-.67.52-.9.9l-.25.6c-.12.44-.12.89,0,1.33h0Z"/>
    <path class="cls-3" d="M248.98,326.39l-.02.15c-.1.33-.12.66-.04,1,.02.33.11.64.3.93.16.29.37.53.64.7.24.22.52.37.85.45l.66.09c.45,0,.87-.12,1.26-.34l.51-.39c.31-.31.52-.68.64-1.1l.02-.15c.1-.33.12-.66.04-1-.02-.33-.11-.64-.3-.93-.16-.29-.37-.53-.64-.7-.24-.22-.52-.37-.85-.45l-.66-.09c-.45,0-.87.12-1.26.34l-.51.39c-.31.31-.52.68-.64,1.1h0Z"/>
    <path class="cls-3" d="M248.86,327.47l-.02.22c-.01.34.06.67.22.96.1.31.27.58.52.8.23.24.49.42.8.52.3.16.62.23.96.22l.66-.09c.42-.12.79-.33,1.1-.64l.39-.51c.23-.39.34-.81.34-1.26l.02-.22c.01-.34-.06-.67-.22-.96-.1-.31-.27-.58-.52-.8-.23-.24-.49-.42-.8-.52-.3-.16-.62-.23-.96-.22l-.66.09c-.42.12-.79.33-1.1.64l-.39.51c-.23.39-.34.81-.34,1.26h0Z"/>
    <path class="cls-3" d="M249.16,326.94s-.01.02-.02.03c0,0,0,0,0,.01,0,0,0,0,0,0-.04.1-.09.2-.13.3-.04.1-.08.2-.13.3,0,.02-.02.04-.02.07-.02.11-.04.27-.05.35s-.04.23-.05.35c0,.01,0,.02,0,.03,0,.01,0,.02,0,.03l.09.66s0,0,0,0c0,0,0,0,0,0,0,0,0,.01,0,.02.08.33.23.61.45.85.18.27.41.49.7.64.29.18.6.28.93.3.33.07.66.06,1-.04l.6-.25c.38-.22.67-.52.9-.9l.25-.6c.12-.44.12-.89,0-1.33,0-.01,0-.02,0-.03l.09.66s0-.05,0-.08l-.09.66s.01-.05.02-.08l-.25.6s.02-.04.03-.05c.18-.29.28-.6.3-.93.07-.33.06-.66-.04-1-.08-.33-.23-.61-.45-.85-.18-.27-.41-.49-.7-.64l-.6-.25c-.44-.12-.89-.12-1.33,0l-.6.25c-.38.22-.67.52-.9.9h0Z"/>
    <path class="cls-3" d="M248.74,328.7l-.03.22c-.01.34.06.67.22.96.1.31.27.58.52.8.23.24.49.42.8.52.3.16.62.23.96.22l.66-.09c.42-.12.79-.33,1.1-.64l.39-.51c.23-.39.34-.81.34-1.26l.03-.22c.01-.34-.06-.67-.22-.96-.1-.31-.27-.58-.52-.8-.23-.24-.49-.42-.8-.52-.3-.16-.62-.23-.96-.22l-.66.09c-.42.12-.79.33-1.1.64l-.39.51c-.23.39-.34.81-.34,1.26h0Z"/>
    <path class="cls-3" d="M248.83,329.9s0,.01,0,.02c.08.21.16.42.26.61,0,0,0,.01.01.02,0,0,0,0,0,0,.12.17.43.56.4.51,0,.01.02.02.03.03.17.14.34.28.52.4,0,0,.01,0,.02.01.29.18.6.28.93.3.33.07.66.06,1-.04.33-.08.61-.23.85-.45.27-.18.49-.41.64-.7l.25-.6c.12-.44.12-.89,0-1.33l-.25-.6c-.22-.38-.52-.67-.9-.9,0,0-.02-.01-.03-.02l.51.39s-.03-.02-.04-.04l.39.51s-.02-.03-.03-.05l.25.6s0-.02,0-.02c-.08-.33-.23-.61-.45-.85-.18-.27-.41-.49-.7-.64-.29-.18-.6-.28-.93-.3-.33-.07-.66-.06-1,.04l-.6.25c-.38.22-.67.52-.9.9l-.25.6c-.12.44-.12.89,0,1.33h0Z"/>
    <path class="cls-3" d="M250.35,331.64l.1.05c.29.18.6.28.93.3.33.07.66.06,1-.04.33-.08.61-.23.85-.45.27-.18.49-.41.64-.7l.25-.6c.12-.44.12-.89,0-1.33l-.25-.6c-.22-.38-.52-.67-.9-.9l-.1-.05c-.29-.18-.6-.28-.93-.3-.33-.07-.66-.06-1,.04-.33.08-.61.23-.85.45-.27.18-.49.41-.64.7l-.25.6c-.12.44-.12.89,0,1.33l.25.6c.22.38.52.67.9.9h0Z"/>
    <path class="cls-3" d="M251.78,332.05c3.22,0,3.22-5,0-5s-3.22,5,0,5h0Z"/>
    <path class="cls-3" d="M251.95,331.78c3.22,0,3.22-5,0-5s-3.22,5,0,5h0Z"/>
    <path class="cls-3" d="M254.09,327.85l-.02-.05c-.16-.29-.37-.53-.64-.7-.24-.22-.52-.37-.85-.45-.33-.1-.66-.12-1-.04-.33.02-.64.11-.93.3l-.51.39c-.31.31-.52.68-.64,1.1l-.09.66c0,.45.12.87.34,1.26l.02.05c.16.29.37.53.64.7.24.22.52.37.85.45.33.1.66.12,1,.04.33-.02.64-.11.93-.3l.51-.39c.31-.31.52-.68.64-1.1l.09-.66c0-.45-.12-.87-.34-1.26h0Z"/>
    <path class="cls-3" d="M254.48,328.74v-.07c.01-.34-.06-.67-.22-.96-.1-.31-.27-.58-.52-.8-.23-.24-.49-.42-.8-.52-.3-.16-.62-.23-.96-.22l-.66.09c-.42.12-.79.33-1.1.64l-.39.51c-.23.39-.34.81-.34,1.26v.07c-.01.34.06.67.22.96.1.31.27.58.52.8.23.24.49.42.8.52.3.16.62.23.96.22l.66-.09c.42-.12.79-.33,1.1-.64l.39-.51c.23-.39.34-.81.34-1.26h0Z"/>
    <path class="cls-3" d="M254.49,328.9l.04-.15c.1-.33.12-.66.04-1-.02-.33-.11-.64-.3-.93-.16-.29-.37-.53-.64-.7-.24-.22-.52-.37-.85-.45l-.66-.09c-.45,0-.87.12-1.26.34l-.51.39c-.31.31-.52.68-.64,1.1l-.04.15c-.1.33-.12.66-.04,1,.02.33.11.64.3.93.16.29.37.53.64.7.24.22.52.37.85.45l.66.09c.45,0,.87-.12,1.26-.34l.51-.39c.31-.31.52-.68.64-1.1h0Z"/>
    <path class="cls-3" d="M254.77,327.67v-.2c.01-.34-.06-.67-.22-.96-.1-.31-.27-.58-.52-.8-.23-.24-.49-.42-.8-.52-.3-.16-.62-.23-.96-.22l-.66.09c-.42.12-.79.33-1.1.64l-.39.51c-.23.39-.34.81-.34,1.26v.2c-.01.34.06.67.22.96.1.31.27.58.52.8.23.24.49.42.8.52.3.16.62.23.96.22l.66-.09c.42-.12.79-.33,1.1-.64l.39-.51c.23-.39.34-.81.34-1.26h0Z"/>
    <path class="cls-3" d="M254.77,327.01v-.22c.01-.34-.06-.67-.22-.96-.1-.31-.27-.58-.52-.8-.23-.24-.49-.42-.8-.52-.3-.16-.62-.23-.96-.22l-.66.09c-.42.12-.79.33-1.1.64l-.39.51c-.23.39-.34.81-.34,1.26v.22c-.01.34.06.67.22.96.1.31.27.58.52.8.23.24.49.42.8.52.3.16.62.23.96.22l.66-.09c.42-.12.79-.33,1.1-.64l.39-.51c.23-.39.34-.81.34-1.26h0Z"/>
    <path class="cls-3" d="M254.77,326.42v-.1c.01-.34-.06-.67-.22-.96-.1-.31-.27-.58-.52-.8-.23-.24-.49-.42-.8-.52-.3-.16-.62-.23-.96-.22l-.66.09c-.42.12-.79.33-1.1.64l-.39.51c-.23.39-.34.81-.34,1.26v.1c-.01.34.06.67.22.96.1.31.27.58.52.8.23.24.49.42.8.52.3.16.62.23.96.22l.66-.09c.42-.12.79-.33,1.1-.64l.39-.51c.23-.39.34-.81.34-1.26h0Z"/>
    <path class="cls-3" d="M234.99,261.1v.07c-.01.34.06.67.22.96.1.31.27.58.52.8.23.24.49.42.8.52.3.16.62.23.96.22l.66-.09c.42-.12.79-.33,1.1-.64l.39-.51c.23-.39.34-.81.34-1.26v-.07c.01-.34-.06-.67-.22-.96-.1-.31-.27-.58-.52-.8-.23-.24-.49-.42-.8-.52-.3-.16-.62-.23-.96-.22l-.66.09c-.42.12-.79.33-1.1.64l-.39.51c-.23.39-.34.81-.34,1.26h0Z"/>
    <path class="cls-3" d="M237.75,264.93c3.22,0,3.22-5,0-5s-3.22,5,0,5h0Z"/>
    <path class="cls-3" d="M237.68,265.59c3.22,0,3.22-5,0-5s-3.22,5,0,5h0Z"/>
    <path class="cls-3" d="M238.4,266.43c3.22,0,3.22-5,0-5s-3.22,5,0,5h0Z"/>
    <path class="cls-3" d="M238.43,266.96c3.22,0,3.22-5,0-5s-3.22,5,0,5h0Z"/>
    <path class="cls-3" d="M238.66,267.05c3.22,0,3.22-5,0-5s-3.22,5,0,5h0Z"/>
    <path class="cls-5" d="M16.55,358.64c-2.23,2.4-4.54,4.75-6.66,7.24s-3.4,5.29-5.42,7.71c-4.42,5.28-8.42,10.87-12.51,16.42-.8,1.09-.18,2.79.9,3.42,1.27.74,2.62.19,3.42-.9,2.06-2.79,4.12-5.59,6.17-8.38,1.87-2.54,3.85-4.93,5.84-7.38s3.19-5.07,5.13-7.36c2.12-2.5,4.43-4.84,6.66-7.24s-1.34-5.9-3.54-3.54h0Z"/>
    <path class="cls-5" d="M18.46,362.89c3.22,0,3.22-5,0-5s-3.22,5,0,5h0Z"/>
    <path class="cls-5" d="M55.19,280.59c-1.63,7.28-4.28,14.36-6.58,21.45s-4.58,13.74-7.87,20.26c-1.45,2.87,2.87,5.4,4.32,2.52,3.41-6.76,5.89-13.81,8.23-21s5.07-14.48,6.73-21.92c.7-3.13-4.12-4.47-4.82-1.33h0Z"/>
    <path class="cls-5" d="M41.09,327.87c3.22,0,3.22-5,0-5s-3.22,5,0,5h0Z"/>
    <path class="cls-5" d="M41.22,328c3.22,0,3.22-5,0-5s-3.22,5,0,5h0Z"/>
    <path class="cls-5" d="M40.7,328.85c3.22,0,3.22-5,0-5s-3.22,5,0,5h0Z"/>
    <path class="cls-5" d="M23.61,259.47c-1.47,1.09-2.99,2.18-4.23,3.55-.57.63-1.02,1.36-1.6,1.98-.53.58-1.19.79-1.87,1.17-1.61.9-2.54,2.29-3.63,3.71s-2.27,2.57-3.51,3.74c-2.55,2.39-5.28,4.57-7.69,7.11s-4.51,5.13-7.37,6.99c-2.69,1.75-.19,6.08,2.52,4.32,3.01-1.95,5.38-4.56,7.81-7.17s5.05-4.79,7.64-7.14c1.32-1.2,2.6-2.45,3.74-3.82.92-1.11,1.72-2.72,3.02-3.43.82-.45,1.62-.8,2.34-1.42.65-.56,1.11-1.27,1.64-1.93,1.05-1.32,2.36-2.35,3.71-3.35,1.08-.8,1.63-2.17.9-3.42-.63-1.07-2.33-1.7-3.42-.9h0Z"/>
  </g>
</svg>