<?xml version="1.0" encoding="UTF-8"?>
<svg xmlns="http://www.w3.org/2000/svg" width="595.28" height="595.28" viewBox="0 0 595.28 595.28">
  <defs>
    <style>
      .cls-1 {
        stroke: #7d7e81;
        stroke-width: 2px;
      }

      .cls-1, .cls-2, .cls-3 {
        fill: #231f20;
      }

      .cls-1, .cls-2, .cls-4, .cls-5 {
        stroke-miterlimit: 10;
      }

      .cls-6 {
        fill: #00aeef;
      }

      .cls-6, .cls-7, .cls-8, .cls-3 {
        stroke-width: 0px;
      }

      .cls-7 {
        fill: #2a292b;
      }

      .cls-2 {
        stroke: #8c8e90;
        stroke-width: 3px;
      }

      .cls-8 {
        fill: #fff;
      }

      .cls-4 {
        fill: #4d4d4f;
        stroke: #4e4e4f;
        stroke-width: 5px;
      }

      .cls-5 {
        fill: none;
        stroke: #231f20;
        stroke-width: 6px;
      }
    </style>
  </defs>
  <g id="bg">
    <rect class="cls-8" width="595.28" height="595.28"/>
  </g>
  <g id="Layer_1" data-name="Layer 1">
    <g>
      <circle class="cls-3" cx="61.1" cy="230.99" r="32.98"/>
      <polyline class="cls-3" points="42.54 328.25 43.77 326.5 43.36 325.89"/>
      <rect id="hand1" class="cls-3" x="50.13" y="405.48" width="34.55" height="128" rx="17.28" ry="17.28" transform="translate(11.44 -1.5) rotate(1.39)"/>
      <polyline class="cls-3" points="25.63 258.99 -6.19 292.14 -85.86 454.48 -69.82 462.67 -59.72 462.67 -6.35 392.9 42.54 328.25 59.65 279.58"/>
      <polyline class="cls-3" points="76.63 375.68 43.36 325.89 59.65 279.58 91.98 346.19"/>
      <polyline class="cls-3" points="25.63 258.99 -51.84 257.5 -49.38 285.1 -6.19 292.14"/>
      <polyline class="cls-3" points="49.12 510.9 48.67 430.68 -6.79 393.46 19.93 358.14 87.36 415.6 83.93 500.78"/>
      <rect id="hand1-2" data-name="hand1" class="cls-3" x="99.61" y="307.11" width="28.17" height="89.32" rx="11.59" ry="11.59" transform="translate(386.61 102.4) rotate(65.49)"/>
    </g>
  </g>
  <g id="bus">
    <rect class="cls-3" x="562.69" y="29.63" width="467.14" height="51.85" rx="12.53" ry="12.53"/>
    <g id="bus_carcass" data-name="bus carcass">
      <path class="cls-3" d="M1058.58,79.42c.63,75.46.12,327.09.19,408.61-.44,6.9.89,15.34-6.48,16.8-147.72,2.04-481.61-.15-569.07.66-12.74.07-19.65-1-33.35-5.26-8.27-2.49-19.46-6.16-32.72-10.52-17.16-5.76-34.83-11.31-51.2-17.13-8.36-3.01-20.07-7.53-24.09-11.66-5.2-4.61-6.24-10.13-6.58-17.05-.63-53.47.04-171.44-.22-267.21.45-44.81-.8-70.7.41-97.84.45-4.88,1.43-7.9,3.81-9.72,1.76-1.32,4.27-2.04,7.82-2.43,85.45-1.41,256.78-.15,341.07-.54h.12c106.82.16,248.63-.33,355.12.22,10.76.31,14.8,2.45,15.18,13.07Z"/>
    </g>
    <g id="white_stripe" data-name="white stripe">
      <rect class="cls-6" x="335.01" y="345.93" width="434.04" height="35.36"/>
    </g>
    <g id="wheel">
      <circle class="cls-2" cx="581.94" cy="480.67" r="80.32"/>
      <circle class="cls-1" cx="581.94" cy="480.67" r="51.46" transform="translate(-169.44 552.28) rotate(-45)"/>
      <line class="cls-4" x1="581.94" y1="430.43" x2="581.94" y2="531.1"/>
      <line class="cls-4" x1="538.46" y1="455.57" x2="626.5" y2="506.4"/>
      <line class="cls-4" x1="626.5" y1="454.94" x2="538.25" y2="505.89"/>
      <circle class="cls-3" cx="581.94" cy="480.67" r="5.09"/>
    </g>
    <g id="black_window_band" data-name="black window band">
      <rect class="cls-7" x="348.2" y="107.61" width="139.27" height="211.37" rx="11.96" ry="11.96"/>
      <rect class="cls-7" x="503.75" y="107.61" width="247.5" height="211.6" rx="11.28" ry="11.28"/>
    </g>
    <path class="cls-3" d="M237.96,267.56c3.22,0,3.22-5,0-5s-3.22,5,0,5h0Z"/>
    <path class="cls-3" d="M237.86,267.95c3.22,0,3.22-5,0-5s-3.22,5,0,5h0Z"/>
    <path class="cls-3" d="M237.86,267.95c3.22,0,3.22-5,0-5s-3.22,5,0,5h0Z"/>
    <path class="cls-3" d="M240.32,265.06v-.1c.01-.34-.06-.67-.22-.96-.1-.31-.27-.58-.52-.8-.23-.24-.49-.42-.8-.52-.3-.16-.62-.23-.96-.22l-.66.09c-.42.12-.79.33-1.1.64l-.39.51c-.23.39-.34.81-.34,1.26v.1c-.01.34.06.67.22.96.1.31.27.58.52.8.23.24.49.42.8.52.3.16.62.23.96.22l.66-.09c.42-.12.79-.33,1.1-.64l.39-.51c.23-.39.34-.81.34-1.26h0Z"/>
    <path class="cls-3" d="M237.72,267.22c3.22,0,3.22-5,0-5s-3.22,5,0,5h0Z"/>
    <path class="cls-3" d="M240.17,264.57v-.05c.01-.34-.06-.67-.22-.96-.1-.31-.27-.58-.52-.8-.23-.24-.49-.42-.8-.52-.3-.16-.62-.23-.96-.22l-.66.09c-.42.12-.79.33-1.1.64l-.39.51c-.23.39-.34.81-.34,1.26v.05c-.01.34.06.67.22.96.1.31.27.58.52.8.23.24.49.42.8.52.3.16.62.23.96.22l.66-.09c.42-.12.79-.33,1.1-.64l.39-.51c.23-.39.34-.81.34-1.26h0Z"/>
    <path class="cls-3" d="M237.62,266.63c3.22,0,3.22-5,0-5s-3.22,5,0,5h0Z"/>
    <path class="cls-3" d="M237.62,266.48c3.22,0,3.22-5,0-5s-3.22,5,0,5h0Z"/>
    <path class="cls-3" d="M239.94,262.78l-.05-.24c-.08-.33-.23-.61-.45-.85-.18-.27-.41-.49-.7-.64-.29-.18-.6-.28-.93-.3-.33-.07-.66-.06-1,.04l-.6.25c-.38.22-.67.52-.9.9l-.25.6c-.12.44-.12.89,0,1.33l.05.24c.08.33.23.61.45.85.18.27.41.49.7.64.29.18.6.28.93.3.33.07.66.06,1-.04l.6-.25c.38-.22.67-.52.9-.9l.25-.6c.12-.44.12-.89,0-1.33h0Z"/>
    <path class="cls-3" d="M239.64,262l-.11-.39c-.08-.33-.23-.61-.45-.85-.18-.27-.41-.49-.7-.64-.29-.18-.6-.28-.93-.3-.33-.07-.66-.06-1,.04l-.6.25c-.38.22-.67.52-.9.9l-.25.6c-.12.44-.12.89,0,1.33l.11.39c.08.33.23.61.45.85.18.27.41.49.7.64.29.18.6.28.93.3.33.07.66.06,1-.04l.6-.25c.38-.22.67-.52.9-.9l.25-.6c.12-.44.12-.89,0-1.33h0Z"/>
    <path class="cls-3" d="M237.08,264.09c3.22,0,3.22-5,0-5s-3.22,5,0,5h0Z"/>
    <path class="cls-3" d="M238.11,264.82c3.22,0,3.22-5,0-5s-3.22,5,0,5h0Z"/>
    <path class="cls-3" d="M238.4,265.46c3.22,0,3.22-5,0-5s-3.22,5,0,5h0Z"/>
    <path class="cls-3" d="M240.76,261.98v-.05c.01-.34-.06-.67-.22-.96-.1-.31-.27-.58-.52-.8-.23-.24-.49-.42-.8-.52-.3-.16-.62-.23-.96-.22l-.66.09c-.42.12-.79.33-1.1.64l-.39.51c-.23.39-.34.81-.34,1.26v.05c-.01.34.06.67.22.96.1.31.27.58.52.8.23.24.49.42.8.52.3.16.62.23.96.22l.66-.09c.42-.12.79-.33,1.1-.64l.39-.51c.23-.39.34-.81.34-1.26h0Z"/>
    <path class="cls-3" d="M240.02,259.41l-.1-.24c-.08-.33-.23-.61-.45-.85-.18-.27-.41-.49-.7-.64-.29-.18-.6-.28-.93-.3-.33-.07-.66-.06-1,.04l-.6.25c-.38.22-.67.52-.9.9l-.25.6c-.12.44-.12.89,0,1.33l.1.24c.08.33.23.61.45.85.18.27.41.49.7.64.29.18.6.28.93.3.33.07.66.06,1-.04l.6-.25c.38-.22.67-.52.9-.9l.25-.6c.12-.44.12-.89,0-1.33h0Z"/>
    <path class="cls-3" d="M239.97,259.14v-.1c.01-.34-.06-.67-.22-.96-.1-.31-.27-.58-.52-.8-.23-.24-.49-.42-.8-.52-.3-.16-.62-.23-.96-.22l-.66.09c-.42.12-.79.33-1.1.64l-.39.51c-.23.39-.34.81-.34,1.26v.1c-.01.34.06.67.22.96.1.31.27.58.52.8.23.24.49.42.8.52.3.16.62.23.96.22l.66-.09c.42-.12.79-.33,1.1-.64l.39-.51c.23-.39.34-.81.34-1.26h0Z"/>
    <path class="cls-3" d="M237.23,260.96c3.22,0,3.22-5,0-5s-3.22,5,0,5h0Z"/>
    <path class="cls-3" d="M205.98,311.94c.01.1.01.2,0,.3l.09-.66c-.04.28-.16.54-.24.81-.13.46-.16.96-.2,1.44-.04.66-.09,1.32-.13,1.98-.01.15-.03.3-.03.45,0,.71.26,1.42.76,1.93.73.74,1.83.94,2.82.71.76-.18,1.4-.68,1.81-1.34s.41-1.37.28-2.08c-.03-.16-.07-.32-.1-.49l.09.66c-.02-.19-.03-.39,0-.58l-.09.66c.02-.14.05-.27.1-.4l-.25.6c.19-.44.44-.86.53-1.33s.13-.99.2-1.48l-.09.66c.03-.22.08-.43.16-.64l-.25.6s.04-.09.07-.13c.31-.59.43-1.27.25-1.93-.16-.58-.61-1.21-1.15-1.49-.58-.31-1.28-.46-1.93-.25-.61.2-1.19.57-1.49,1.15-.21.39-.39.82-.46,1.26s-.12.91-.18,1.37l.09-.66c-.03.22-.08.44-.17.64l.25-.6c-.15.31-.3.61-.42.95s-.16.75-.18,1.1c-.03.56.11,1.11.2,1.65l-.09-.66v.08c.03-.22.06-.44.09-.66v.05c.07-.2.15-.4.24-.6-.01.03-.03.06-.05.08l.39-.51-.04.03.51-.39s-.06.04-.09.05l.6-.25c-.05.02-.1.03-.16.05l.66-.09c-.07,0-.15.01-.22,0l.66.09s-.08-.01-.12-.03l1.1.64-.05-.04.39.51-.02-.05.34,1.26c-.03-.22.02-.47.04-.7l.05-.81c.03-.5.05-1.01.11-1.51l-.09.66c.04-.26.13-.49.21-.74.13-.42.23-.89.18-1.33.01-.34-.06-.67-.22-.96-.1-.31-.27-.58-.52-.8-.43-.43-1.15-.76-1.77-.73s-1.32.24-1.77.73c-.42.46-.81,1.12-.73,1.77h0Z"/>
    <path class="cls-3" d="M250.21,324.31c-.45.33-.79.58-1.07,1.08-.16.28-.31.61-.37.94-.1.53-.08,1.04-.14,1.57l.09-.66c-.08.57-.25,1.12-.35,1.69-.08.46-.16.93-.15,1.4,0,.32.03.73.12,1.01.25.77.74,1.38,1.5,1.7.34.14.63.22,1.02.22.43,0,.95-.13,1.31-.36.27-.17.52-.4.77-.6.37-.3.66-.59.94-1.01.36-.53.52-1.21.53-1.85,0-.49-.12-.98-.19-1.47l.09.66c-.03-.28-.03-.55,0-.82l-.09.66c.04-.27.11-.54.22-.79l-.25.6c.03-.07.06-.14.1-.2.3-.6.44-1.26.25-1.93-.16-.58-.61-1.21-1.15-1.49-.58-.31-1.28-.46-1.93-.25-.6.19-1.2.57-1.49,1.15-.18.36-.35.73-.46,1.12-.12.4-.16.84-.21,1.25-.06.63.09,1.26.18,1.89l-.09-.66c.02.15.02.29.01.43l.09-.66c-.02.1-.04.18-.08.27l.25-.6c-.03.06-.06.11-.1.17l.39-.51c-.21.26-.5.47-.76.68l.51-.39-.05.03.6-.25-.05.02.66-.09h-.05c.59.24,1.18.48,1.77.73l-.04-.03.39.51-.02-.05.25.6v-.05c.02.22.05.44.08.66-.03-.27-.03-.54,0-.81l-.09.66c.06-.47.19-.93.29-1.39.09-.41.15-.84.19-1.25.03-.26.01-.53.04-.79l-.09.66c.01-.09.03-.18.07-.27l-.25.6c.03-.06.06-.11.09-.17l-.39.51s.06-.06.09-.09l-.51.39.05-.04c.29-.16.53-.37.7-.64.22-.24.37-.52.45-.85.16-.6.09-1.4-.25-1.93s-.86-1-1.49-1.15-1.39-.13-1.93.25h0Z"/>
    <path class="cls-3" d="M55.2,281.42c-1.98,7.13-3.03,14.5-5.35,21.54-1.12,3.4-2.67,6.48-4.46,9.58-.97,1.67-1.76,3.39-2.4,5.21-.58,1.63-1.11,3.18-2.15,4.58-.81,1.08-.18,2.79.9,3.42,1.27.75,2.61.19,3.42-.9,1.11-1.5,1.77-3.25,2.38-4.99s1.27-3.25,2.17-4.8c1.93-3.33,3.59-6.71,4.83-10.36,2.42-7.16,3.48-14.68,5.49-21.95.86-3.11-3.96-4.43-4.82-1.33h0Z"/>
    <path class="cls-3" d="M15.27,357.85c-1.8,2.62-4.16,4.8-6.41,7.03-2.47,2.46-4.63,5.05-6.49,8.01s-4.63,5.11-6.51,8.03c-.93,1.45-1.76,3.01-2.48,4.57-.37.79-.66,1.6-.99,2.41-.17.41-.34.94-.72,1.18-2.72,1.7-.22,6.03,2.52,4.32,1.66-1.03,2.41-2.58,3.09-4.34.57-1.49,1.33-2.89,2.11-4.28,1.82-3.25,4.78-5.54,6.83-8.62.94-1.41,1.76-2.87,2.85-4.17s2.28-2.51,3.48-3.71c2.51-2.5,5.03-4.97,7.04-7.9.76-1.11.21-2.77-.9-3.42-1.24-.72-2.65-.22-3.42.9h0Z"/>
    <path class="cls-3" d="M83.87,414.33c-2.79.94-5.44,2.17-8.03,3.55s-5.33,1.92-8.03,2.71c-6.01,1.76-11.79,3.95-17.62,6.23-1.26.49-2.13,1.68-1.75,3.08.33,1.2,1.81,2.24,3.08,1.75,5.83-2.27,11.61-4.47,17.62-6.23,2.77-.81,5.67-1.45,8.27-2.72s5.04-2.62,7.79-3.54c3.03-1.02,1.73-5.85-1.33-4.82h0Z"/>
    <path class="cls-3" d="M88.32,345.53c-3.78,1.85-7.55,3.75-11.35,5.55-1.73.82-3.48,1.47-5.3,2.04s-3.69,1.15-5.21,2.32c-1.07.82-1.64,2.15-.9,3.42.62,1.05,2.34,1.72,3.42.9,1.43-1.1,3.1-1.52,4.79-2.06,1.96-.63,3.86-1.42,5.72-2.3,3.8-1.81,7.57-3.7,11.35-5.55,1.21-.59,1.54-2.32.9-3.42-.72-1.24-2.2-1.49-3.42-.9h0Z"/>
    <path class="cls-3" d="M23.56,259.28c-6.91,2.57-12.06,8.89-16.85,14.22-1.22,1.36-2.42,2.75-3.44,4.27-.79,1.18-1.14,2.67-2.33,3.47-3.03,2.03-5.81,4.28-7.94,7.27-.78,1.1-.19,2.78.9,3.42,1.26.73,2.63.21,3.42-.9,1.79-2.5,4.32-4.16,6.79-5.9,1.58-1.11,2.08-2.54,3.03-4.13.8-1.33,1.79-2.5,2.82-3.65,2.31-2.59,4.65-5.18,7.16-7.6,2.27-2.18,4.77-4.54,7.77-5.65,1.26-.47,2.13-1.69,1.75-3.08-.33-1.22-1.8-2.22-3.08-1.75h0Z"/>
    <path class="cls-3" d="M235.71,262.13s.05.08.07.12l-.25-.6c.02.06.04.12.05.18l-.09-.66c.02.2,0,.4.03.59.04.42.1.84.18,1.25s.21.85.27,1.28l-.09-.66c.02.13.03.26.03.4.02.66.26,1.3.73,1.77.23.24.49.42.8.52.3.16.62.23.96.22.65-.03,1.32-.24,1.77-.73s.76-1.1.73-1.77c-.02-.57-.12-1.14-.25-1.7-.08-.36-.17-.72-.22-1.09l.09.66c-.02-.21-.02-.41-.03-.61-.03-.56-.13-1.22-.47-1.69-.16-.29-.37-.53-.64-.7-.24-.22-.52-.37-.85-.45-.33-.1-.66-.12-1-.04-.33.02-.64.11-.93.3-.53.34-1,.86-1.15,1.49l-.09.66c0,.45.12.87.34,1.26h0Z"/>
    <path class="cls-3" d="M240.36,260.53c-.24-.64-.41-1.31-.5-1.99l.09.66c-.02-.2-.04-.4-.06-.6l-4.91.66c.13.89.53,1.72.66,2.61l-.09-.66c.16,1.26.15,2.54.21,3.81.03.66.26,1.29.73,1.77.43.43,1.15.76,1.77.73,1.3-.06,2.57-1.1,2.5-2.5-.05-1.13-.08-2.26-.17-3.38-.06-.72-.16-1.44-.38-2.13-.16-.52-.34-1.03-.42-1.57s-.67-1.24-1.15-1.49c-.5-.27-1.03-.37-1.59-.3-1.15.16-2.25,1.21-2.17,2.46.08,1.11.26,2.21.65,3.25.23.62.56,1.15,1.15,1.49.54.31,1.33.45,1.93.25s1.19-.57,1.49-1.15.48-1.3.25-1.93h0Z"/>
    <path class="cls-3" d="M294.13,299.04c3.22,0,3.22-5,0-5s-3.22,5,0,5h0Z"/>
    <path class="cls-3" d="M294.52,298.85c3.22,0,3.22-5,0-5s-3.22,5,0,5h0Z"/>
    <path class="cls-3" d="M13.49,360.65l-.17,2.12,4.91-.66c-.61-1.49-1.02-3.02-1.26-4.62-.18-1.21-1.65-1.96-2.74-1.79-1.21.18-2.17,1.19-2.17,2.46.02,3.39.04,6.79.06,10.18h5l-.14-4.21c-.08-2.32-3.52-3.61-4.66-1.26-1.03,2.11-1.61,4.21-1.87,6.54h5l-.5-6.15c-.11-1.35-1.07-2.5-2.5-2.5-1.28,0-2.6,1.15-2.5,2.5.21,2.9.22,5.79.03,8.69l4.91-.66c-.68-2.66-1.25-5.36-1.6-8.09-.17-1.34-1.02-2.5-2.5-2.5s-2.43,1.15-2.5,2.5c-.18,3.65-.15,7.31.1,10.96.21,3.22,4.77,3.22,5,0s.39-6.38.5-9.57h-5l-.23,6.94,4.91-.66-1.07-4.13c-.62-2.38-4.2-2.38-4.82,0-.57,2.19-.95,4.41-1.2,6.67l4.91-.66c-.36-1.27-.66-2.54-.92-3.83-.57-2.84-4.84-2.07-4.91.66s-.14,5.38-.21,8.08h5c-.3-3.07-.72-6.12-1.27-9.16-.5-2.8-4.96-2.11-4.91.66.06,3.19.28,6.36.67,9.53.17,1.34,1.03,2.5,2.5,2.5,1.32,0,2.55-1.14,2.5-2.5-.13-3.83-.59-7.64-1.36-11.39-.56-2.74-5.1-2.16-4.91.66l.73,10.89c.21,3.18,4.98,3.25,5,0,.02-2.91-.1-5.81-.36-8.71-.12-1.34-1.06-2.5-2.5-2.5-1.36,0-2.49,1.14-2.5,2.5l-.05,9.51h5c-.35-3.08-.91-6.1-1.76-9.08-.63-2.21-4.4-2.55-4.82,0-.62,3.77-.84,7.57-1,11.39h5c-.19-2.71-.6-5.4-1.25-8.04-.57-2.32-4.33-2.45-4.82,0-.43,2.15-.95,4.28-1.56,6.38H3.48c-.45-2.7-.71-5.46-1.8-7.99-.43-1-1.85-1.42-2.82-1.15-1.15.32-1.7,1.3-1.84,2.41-.34,2.74-.5,5.48-.48,8.24H1.54c-.02-1.44-.04-2.87-.06-4.31H-3.52c.2,1.84.46,3.67.8,5.49.23,1.21,1.61,1.96,2.74,1.79,1.29-.19,2.06-1.18,2.17-2.46.12-1.46.16-2.91.11-4.37-.11-3.21-5.08-3.23-5,0l.13,5.02,4.91-.66-.53-1.85c-.8-2.81-4.71-2.09-4.91.66-.15,2.01-.18,4.01-.09,6.03H1.82c-.23-2.03-.76-3.89-1.79-5.66-1.16-2-4.96-1.3-4.66,1.26.21,1.78.56,3.46,1.24,5.12.51,1.25,1.66,2.13,3.08,1.75,1.23-.34,2.2-1.8,1.75-3.08-.6-1.69-1.29-3.35-2.08-4.96-1.23-2.53-5.48-.76-4.57,1.93.65,1.91,1.5,3.73,2.61,5.41.62.93,1.71,1.45,2.82,1.15.98-.27,1.96-1.34,1.84-2.41-.24-2.16-.83-4.13-1.97-6-1.35-2.2-4.48-1.16-4.66,1.26-.19,2.59-.12,5.16.21,7.73.35,2.78,3.87,3.42,4.91.66.68-1.81-.79-3.54-2.53-3.82-1.52-.24-3.2-.03-4.73.04-1.35.06-2.5,1.11-2.5,2.5,0,1.48,1.15,2.35,2.5,2.5.51.06.86.45,1.17.82l1.77-4.27c-.64,0-1.23-.03-1.85-.16v4.82c4.1-1.2,8.35-1.24,12.59-1.25,1.23,0,2.31-.95,2.46-2.17.16-1.32-.6-2.27-1.79-2.74-2.73-1.08-5.47-2.16-8.2-3.25l.6,4.57c.74-.38,2.01-.17,2.8-.19,1.27-.03,2.54-.04,3.8-.04,2.87,0,3.32-4.06.66-4.91-3.99-1.27-8.03-2.4-12.11-3.37l-1.33,4.82,12.41,2.28,1.33-4.82c-4.05-.58-8.11-1.16-12.21-.81-2.77.24-3.44,4-.66,4.91.79.26,1.58.52,2.37.78.66.22,1.48.34,2.06.7l-1.24-2.16v.25c.24-.59.49-1.18.73-1.77l-.22.2,1.1-.64c-.88.32-1.93.24-2.84.18v5c1.92-.23,3.85-.42,5.78-.57,3.17-.26,3.26-4.97,0-5-2.89-.03-5.78-.06-8.67-.08v5c5.63.01,11.25-.03,16.88-.13,2.76-.05,3.47-4.23.66-4.91-1.72-.41-3.44-.83-5.15-1.24-1.41-.34-3.09-.5-4.32-1.31l1.15,2.82.08-.21-1.15,1.49c-.56.32.16.08.47.05.33-.03.66-.06,1-.09.83-.07,1.66-.14,2.49-.22,1.58-.14,3.15-.27,4.73-.41,2.69-.23,3.53-4.12.66-4.91-4.1-1.12-8.62-.98-12.55-2.69l-1.26,4.66c4.64.03,9.29.06,13.93.08,2.84.02,3.36-4.12.66-4.91-2.2-.65-4.39-1.33-6.57-2.06-1.96-.66-4.09-1.2-5.84-2.33l-.6,4.57c1.19-.32,2.72.13,3.92.29,1.45.19,2.89.39,4.33.6,1.33.19,2.69-.33,3.08-1.75.37-1.33-.45-2.68-1.75-3.08-2.61-.79-5.38-1.56-7.47-3.41l.39,3.03c-1.13.48-1.28.65-.46.52.32-.02.64-.04.96-.06.64-.03,1.29-.06,1.93-.07,1.29-.03,2.58-.01,3.86.04,2.51.1,5.02.33,7.52.67,3.2.44,4.33-3.57,1.33-4.82-2.64-1.1-5.29-2.2-7.93-3.3s-4.4,3.26-1.93,4.57c1.2.64,2.39,1.3,3.56,2.01.52.31,1.03.63,1.55.96.3.19.62.49.95.62.47.18.15.34.05-.21v-1.33l-.1.24,2.41-1.84c-1.99.22-3.98.25-5.98.1-2.24-.17-3.19,2.8-1.77,4.27,1.86,1.91,7.77,5.5,8.99,1.06.26-.93-.03-2.06-.16-2.99s-.29-1.85-.49-2.76c-.4-1.83-.96-3.61-1.63-5.36l-4.57,1.93c1.28,1.77,2.64,3.47,4.16,5.05,1.34,1.4,3.28,3.82,5.42,3.62,1.33-.13,2.53-1.04,2.5-2.5-.1-5.58-3.24-10.06-6.61-14.24-1.21-1.51-3.72-.57-4.18,1.1-.75,2.75.08,5.83,2.3,7.68s5.07-.41,3.93-3.03c-1.02-2.33-2.13-4.61-3.34-6.84-1.32-2.44-5.57-.77-4.57,1.93.41,1.11.69,2.29.51,3.48l3.08-1.75c-.67-.19-1.04-1.29-1.28-1.96-1-2.76-4.57-2.11-4.91.66-.32,2.6-1.09,5.18-2.2,7.55l4.57,1.93c.98-2.65,1.96-5.3,2.94-7.95.38-1.03-.26-2.29-1.15-2.82-2.67-1.59-4.67,1.58-6.05,3.41s-2.67,3.91-3.9,5.94c-1.69,2.79,2.5,5.13,4.32,2.52,1.62-2.33,3.24-4.65,4.86-6.98s-1.91-4.84-3.93-3.03-3.67,3.88-5.33,5.98l4.18,2.43c.17-.4.33-.79.5-1.19.52-1.25-.56-2.75-1.75-3.08-1.44-.4-2.55.5-3.08,1.75-.17.4-.33.79-.5,1.19-.95,2.26,2.67,4.34,4.18,2.43,1.66-2.1,3.33-4.19,5.33-5.98l-3.93-3.03c-1.62,2.33-3.24,4.65-4.86,6.98l4.32,2.52c.88-1.46,1.77-2.91,2.73-4.32.85-1.24,1.78-2.74,2.98-3.66l-1.1.64.24-.07-1.93-.25.18.11-1.15-2.82c-.98,2.65-1.96,5.3-2.94,7.95s3.37,4.49,4.57,1.93c1.52-3.23,2.44-6.53,2.88-10.07l-4.91.66c.87,2.41,2.15,4.7,4.77,5.45,1.18.34,2.88-.41,3.08-1.75.31-2.1.24-4.13-.51-6.14l-4.57,1.93c1.21,2.23,2.32,4.51,3.34,6.84l3.93-3.03c-.89-.74-1.33-1.66-1.01-2.81l-4.18,1.1c2.49,3.09,5.07,6.57,5.15,10.71l2.5-2.5-.33.03,1.26.34c-1.23-.53-2.36-2.03-3.27-3-1.05-1.13-2.02-2.31-2.92-3.56-.73-1.01-1.91-1.55-3.12-1.02-1.05.46-1.9,1.77-1.45,2.95,1.08,2.8,2.2,6.07,2.2,9.11l.34-1.26-.11.22,1.49-1.15c.57.01.69-.02.33-.1-.18-.05-.37-.11-.55-.18-.21-.09-.42-.2-.62-.31-.56-.32-.99-.68-1.44-1.15l-1.77,4.27c2,.15,3.99.12,5.98-.1,1.22-.13,1.96-.71,2.41-1.84.93-2.31-1.4-3.81-3.02-4.84-1.72-1.1-3.49-2.13-5.3-3.09l-1.93,4.57c2.64,1.1,5.29,2.2,7.93,3.3l1.33-4.82c-3.42-.47-6.84-.83-10.29-.89-1.61-.03-3.22,0-4.83.1s-3.57.28-4.34,1.99c-.44.97-.49,2.25.39,3.03,2.78,2.45,6.18,3.64,9.67,4.69l1.33-4.82c-1.89-.27-3.77-.53-5.66-.78-1.75-.23-3.5-.59-5.25-.11-2.14.58-2.37,3.43-.6,4.57,1.98,1.27,4.37,1.93,6.59,2.68,2.32.78,4.67,1.52,7.02,2.21l.66-4.91c-4.64-.03-9.29-.06-13.93-.08-2.31-.01-3.63,3.63-1.26,4.66,4.41,1.92,9.16,1.94,13.74,3.19l.66-4.91c-2.24.19-4.48.39-6.72.58s-4.76-.05-5.72,2.46c-.41,1.07.29,2.25,1.15,2.82,1.5.99,3.33,1.29,5.04,1.7,1.87.45,3.75.9,5.62,1.35l.66-4.91c-5.62.1-11.25.15-16.88.13-3.22,0-3.22,4.97,0,5,2.89.03,5.78.06,8.67.08v-5c-1.93.16-3.86.35-5.78.57-3.14.37-3.28,4.8,0,5,2.31.14,6.35.02,6.23-3.22-.06-1.83-1.59-2.41-3.07-2.9-1.26-.41-2.53-.83-3.79-1.24l-.66,4.91c3.65-.32,7.27.12,10.88.63,1.34.19,2.69-.33,3.08-1.75.33-1.21-.41-2.83-1.75-3.08-4.14-.76-8.27-1.52-12.41-2.28-1.33-.24-2.7.36-3.08,1.75-.35,1.27.43,2.76,1.75,3.08,4.08.97,8.11,2.09,12.11,3.37l.66-4.91c-2.9,0-6.49-.44-9.13.91-2.11,1.08-1.23,3.85.6,4.57,2.73,1.08,5.47,2.16,8.2,3.25l.66-4.91c-4.67.02-9.4.1-13.92,1.43-2.26.66-2.49,4.28,0,4.82,1.05.23,2.11.36,3.18.34,2.28-.03,3.15-2.66,1.77-4.27-1.24-1.43-2.87-2.08-4.71-2.28v5c.75-.03,1.5-.06,2.25-.08.54-.01,1.35-.14,1.8.01l-1.1-.64.15.17-.64-1.1.06.22v-1.33l-.08.2,4.91.66c-.33-2.57-.4-5.14-.21-7.73l-4.66,1.26c.65,1.07,1.15,2.22,1.29,3.48l4.66-1.26c-.88-1.33-1.6-2.71-2.11-4.22l-4.57,1.93c.6,1.23,1.12,2.48,1.57,3.77l4.82-1.33c-.5-1.21-.91-2.48-1.06-3.79l-4.66,1.26c.56.97.98,2.02,1.11,3.14.15,1.34,1.04,2.5,2.5,2.5,1.31,0,2.56-1.14,2.5-2.5-.09-2.01-.06-4.02.09-6.03l-4.91.66.53,1.85c.76,2.67,4.99,2.21,4.91-.66l-.13-5.02H-2.7c.05,1.46.01,2.92-.11,4.37l4.91-.66c-.26-1.38-.47-2.76-.62-4.16s-1.04-2.5-2.5-2.5c-1.34,0-2.52,1.14-2.5,2.5.02,1.44.04,2.87.06,4.31.04,3.21,5.02,3.22,5,0-.02-2.76.14-5.5.48-8.24l-4.66,1.26c.41.96.51,2.11.68,3.14.2,1.22.41,2.44.61,3.66.43,2.55,4.19,2.21,4.82,0s1.13-4.23,1.56-6.38H.21c.55,2.22.91,4.44,1.07,6.72.23,3.19,4.86,3.24,5,0s.28-6.74.82-10.06H2.29c.73,2.54,1.28,5.13,1.59,7.76.15,1.34,1.04,2.5,2.5,2.5,1.36,0,2.49-1.14,2.5-2.5l.05-9.51H3.93c.26,2.9.38,5.8.36,8.71h5l-.73-10.89-4.91.66c.68,3.32,1.06,6.67,1.18,10.06h5c-.39-3.16-.62-6.34-.67-9.53l-4.91.66c.47,2.6.83,5.2,1.09,7.83.31,3.15,4.92,3.28,5,0,.07-2.69.14-5.38.21-8.08l-4.91.66c.26,1.29.57,2.56.92,3.83.33,1.19,1.53,1.97,2.74,1.79,1.32-.2,2.02-1.18,2.17-2.46.2-1.8.57-3.58,1.02-5.34h-4.82l1.07,4.13c.72,2.78,4.82,2.12,4.91-.66l.23-6.94c.11-3.22-4.89-3.21-5,0s-.27,6.39-.5,9.57h5c-.24-3.65-.27-7.31-.1-10.96h-5c.41,3.18.98,6.31,1.78,9.42.73,2.83,4.74,2.07,4.91-.66.18-2.9.17-5.8-.03-8.69h-5l.5,6.15c.27,3.25,4.65,3.18,5,0,.15-1.38.58-2.77,1.19-4.02l-4.66-1.26.14,4.21c.11,3.21,5.02,3.23,5,0-.02-3.39-.04-6.79-.06-10.18l-4.91.66c.23,1.6.65,3.12,1.26,4.62,1.05,2.59,4.67,2.27,4.91-.66l.17-2.12c.11-1.35-1.23-2.5-2.5-2.5-1.44,0-2.39,1.15-2.5,2.5h0Z"/>
  </g>
  <g id="wind">
    <g>
      <path class="cls-5" d="M303.65,279.91c3.2-.03-58.14.19-75.87.31-3.69.1-7.64.27-11-1.71-3.87-2.07-7.27-6.28-8.36-10.17-1.59-5.66.98-12,6.04-15.85,3.64-2.57,9.53-3.24,13.77-1.57,3.49,1.23,6.71,3.9,8.32,7.09,1.26,2.49,1.65,8.35,1.54,7.12"/>
      <path class="cls-5" d="M294.65,296.79c3.2.03-78.35.17-96.07.05-3.69-.1-7.64-.27-11,1.71-3.87,2.07-7.27,6.28-8.36,10.17-1.59,5.66.98,12,6.04,15.85,3.64,2.57,9.53,3.24,13.77,1.57,3.49-1.23,6.71-3.9,8.32-7.09,1.26-2.49,1.65-8.35,1.54-7.12"/>
      <path class="cls-5" d="M311.97,311.92c3.2.03-52.91.17-70.63.05-3.69-.1-7.64-.27-11,1.71-3.87,2.07-7.27,6.28-8.36,10.17-1.59,5.66.98,12,6.04,15.85,3.64,2.57,9.53,3.24,13.77,1.57,3.49-1.23,6.71-3.9,8.32-7.09,1.26-2.49,1.65-8.35,1.54-7.12"/>
    </g>
  </g>
</svg>